{"title":"David Bisbal - El Ruido (Premios Juventud 2012) (h264)","uid":7480382,"size":92288683,"categoryP":"video","categoryS":"music_videos","magnet":"?xt=urn:btih:7cb0e679c5e684d8b529f6746ff4abbe6dac2459&amp;dn=David+Bisbal+-+El+Ruido+%28Premios+Juventud+2012%29+%28h264%29&amp;tr=udp%3A%2F%2Ftracker.openbittorrent.com%3A80&amp;tr=udp%3A%2F%2Fopen.demonii.com%3A1337&amp;tr=udp%3A%2F%2Ftracker.coppersurfer.tk%3A6969&amp;tr=udp%3A%2F%2Fexodus.desync.com%3A6969","seeders":1,"leechers":0,"uploader":"MusicVideos-HQ","files":1,"time":1343417193,"description":"General\n\nFormat                         : MPEG-4\nFormat profile                 : Base Media\nCodec ID                       : isom\nFile size                      : 88.0 MiB\nDuration                       : 3mn 3s\nOverall bit rate mode          : Variable\nOverall bit rate               : 4 019 Kbps\nEncoded date                   : UTC 2012-07-25 22:38:35\nTagged date                    : UTC 2012-07-25 22:38:35\n\nVideo\nID                             : 1\nFormat                         : AVC\nFormat/Info                    : Advanced Video Codec\nFormat profile                 : &lt;a class=&quot;__cf_email__&quot; href=&quot;/cdn-cgi/l/email-protection&quot; data-cfemail=&quot;0d45646a654d413e233d&quot;&gt;[email&amp;#160;protected]&lt;/a&gt;&lt;script cf-hash='f9e31' type=&quot;text/javascript&quot;&gt;\n/* &lt;![CDATA[ */!function(){try{var t=&quot;currentScript&quot;in document?document.currentScript:function(){for(var t=document.getElementsByTagName(&quot;script&quot;),e=t.length;e--;)if(t[e].getAttribute(&quot;cf-hash&quot;))return t[e]}();if(t&amp;&amp;t.previousSibling){var e,r,n,i,c=t.previousSibling,a=c.getAttribute(&quot;data-cfemail&quot;);if(a){for(e=&quot;&quot;,r=parseInt(a.substr(0,2),16),n=2;a.length-n;n+=2)i=parseInt(a.substr(n,2),16)^r,e+=String.fromCharCode(i);e=document.createTextNode(e),c.parentNode.replaceChild(e,c)}}}catch(u){}}();/* ]]&gt; */&lt;/script&gt;\nFormat settings, CABAC         : Yes\nFormat settings, ReFrames      : 2 frames\nCodec ID                       : avc1\nCodec ID/Info                  : Advanced Video Coding\nDuration                       : 3mn 3s\nBit rate                       : 3 801 Kbps\nMaximum bit rate               : 5 445 Kbps\nWidth                          : 640 pixels\nHeight                         : 480 pixels\nDisplay aspect ratio           : 4:3\nFrame rate mode                : Constant\nFrame rate                     : 29.970 fps\nColor space                    : YUV\nChroma subsampling             : 4:2:0\nBit depth                      : 8 bits\nScan type                      : Progressive\nBits/(Pixel*Frame)             : 0.413\nStream size                    : 83.6 MiB (95%)\n\n\nAudio\nID                             : 2\nFormat                         : AAC\nFormat/Info                    : Advanced Audio Codec\nFormat profile                 : LC\nCodec ID                       : 40\nDuration                       : 3mn 3s\nBit rate mode                  : Variable\nBit rate                       : 192 Kbps\nMaximum bit rate               : 208 Kbps\nChannel(s)                     : 2 channels\nChannel positions              : Front: L R\nSampling rate                  : 44.1 KHz\nCompression mode               : Lossy\nDelay relative to video        : -667ms\nStream size                    : 4.21 MiB (5%)","torrent":{"xt":"urn:btih:7cb0e679c5e684d8b529f6746ff4abbe6dac2459","amp;dn":"David+Bisbal+-+El+Ruido+%28Premios+Juventud+2012%29+%28h264%29","amp;tr":["udp%3A%2F%2Ftracker.openbittorrent.com%3A80","udp%3A%2F%2Fopen.demonii.com%3A1337","udp%3A%2F%2Ftracker.coppersurfer.tk%3A6969","udp%3A%2F%2Fexodus.desync.com%3A6969"],"infoHash":"7cb0e679c5e684d8b529f6746ff4abbe6dac2459","infoHashBuffer":{"type":"Buffer","data":[124,176,230,121,197,230,132,216,181,41,246,116,111,244,171,190,109,172,36,89]},"announce":[],"urlList":[]}}